# AST/ASF file generated using VICON BodyLanguage
# -----------------------------------------------
:version 1.10
:name VICON
:units
  mass 1.0
  length 0.45
  angle deg
:documentation
   .ast/.asf automatically generated from VICON data using
   VICON BodyBuilder and BodyLanguage model FoxedUp or BRILLIANT.MOD
:root
   order TX TY TZ RX RY RZ
   axis XYZ
   position 0 0 0  
   orientation 0 0 0 
:bonedata
  begin
     id 1 
     name lhipjoint
     direction 0.623415 -0.642378 0.445763 
     length 2.49859 
     axis 0 0 0  XYZ
  end
  begin
     id 2 
     name lfemur
     direction 0.34202 -0.939693 0  
     length 6.69689  
     axis 0 0 20  XYZ
    dof rx ry rz
    limits (-160.0 20.0)
           (-70.0 70.0)
           (-60.0 70.0)
  end
  begin
     id 3 
     name ltibia
     direction 0.34202 -0.939693 0   
     length 7.37574   
     axis 0 0 20   XYZ
    dof rx
    limits (-10.0 170.0)
  end
  begin
     id 4 
     name lfoot
     direction 0.084323 -0.231675 0.969132   
     length 2.09111   
     axis -90 7.62852e-016 20   XYZ
    dof rx rz
    limits (-45.0 90.0)
           (-70.0 20.0)
  end
  begin
     id 5 
     name ltoes
     direction 1.5357e-011 -4.21957e-011 1   
     length 1.04989   
     axis -90 7.62852e-016 20   XYZ
    dof rx
    limits (-90.0 20.0)
  end
  begin
     id 6 
     name rhipjoint
     direction -0.605402 -0.653903 0.45376   
     length 2.45455  
     axis 0 0 0  XYZ 
  end
  begin
     id 7 
     name rfemur
     direction -0.34202 -0.939693 0   
     length 6.64523   
     axis 0 0 -20   XYZ
    dof rx ry rz
    limits (-160.0 20.0)
           (-70.0 70.0)
           (-70.0 60.0)
  end
  begin
     id 8 
     name rtibia
     direction -0.34202 -0.939693 0   
     length 7.3339   
     axis 0 0 -20   XYZ
    dof rx
    limits (-10.0 170.0)
 end
 begin
     id 9 
     name rfoot
     direction -0.120854 -0.332043 0.93549   
     length 2.23135  
     axis -90 -7.62852e-016 -20   XYZ
    dof rx rz
    limits (-45.0 90.0)
           (-20.0 70.0)
  end
  begin
     id 10 
     name rtoes
     direction -1.53563e-011 -4.21914e-011 1   
     length 1.10614   
     axis -90 -7.62852e-016 -20   XYZ
    dof rx
    limits (-90.0 20.0)
  end
  begin
     id 11 
     name lowerback
     direction 0.0319682 0.998615 -0.0417941   
     length 2.02718   
     axis 0 0 0   XYZ
    dof rx ry rz
    limits (-20.0 45.0)
           (-30.0 30.0)
           (-30.0 30.0)
  end
  begin
     id 12 
     name upperback
     direction 7.63181e-005 0.995808 0.0914691   
     length 1.97539   
     axis 0 0 0   XYZ
    dof rx ry rz
    limits (-20.0 45.0)
           (-30.0 30.0)
           (-30.0 30.0)
  end
  begin
     id 13 
     name thorax
     direction -0.016423 0.993627 0.111514   
     length 2.00349   
     axis 0 0 0   XYZ
    dof rx ry rz
    limits (-20.0 45.0)
           (-30.0 30.0)
           (-30.0 30.0)
  end
  begin
     id 14 
     name lowerneck
     direction -0.174763 0.981668 -0.0760716   
     length 1.71436   
     axis 0 0 0   XYZ
    dof rx ry rz
    limits (-20.0 45.0)
           (-30.0 30.0)
           (-30.0 30.0)
  end
  begin
     id 15 
     name upperneck
     direction 0.345458 0.934587 -0.0848868   
     length 1.72805   
     axis 0 0 0   XYZ
    dof rx ry rz
    limits (-20.0 45.0)
           (-30.0 30.0)
           (-30.0 30.0)
  end
  begin
     id 16
     name head
     direction 0.13001 0.989848 -0.0574291  
     length 1.767  
     axis 0 0 0   XYZ
    dof rx ry rz
    limits (-20.0 45.0)
           (-30.0 30.0)
           (-30.0 30.0)
  end
  begin
     id 17 
     name lclavicle
     direction 0.952951 0.290122 0.0878234  
     length 3.54654  
     axis 0 0 0   XYZ
    dof ry rz
    limits (-20.0 10.0)
           (0.0 20.0)
  end
  begin
     id 18 
     name lhumerus
     direction 1 -4.48957e-011 -4.56525e-028   
     length 5.19807   
     axis 180 -30 -90   XYZ
    dof rx ry rz
    limits (-60.0 90.0)
           (-90.0 90.0)
           (-90.0 90.0)
  end
  begin
     id 19
     name lradius
     direction 1 -4.48979e-011 -2.0317e-027   
     length 3.0937   
     axis 180 -30 -90   XYZ
    dof rx
    limits (-10.0 170.0)
  end
  begin
     id 20
     name lwrist
     direction 1 -4.48953e-011 -3.05809e-027   
     length 1.54685   
     axis 8.48514e-016 90 90   XYZ
    dof ry
    limits (-180.0 0.0)
 end
  begin
     id 21 
     name lhand
     direction 1 -4.48952e-011 -6.11639e-027   
     length 0.672632   
     axis 3.9013e-015 90 90   XYZ
    dof rx rz
    limits (-90.0 90.0)
           (-45.0 45.0)
  end
  begin
     id 22 
     name lfingers
     direction 1 -4.48925e-011 -1.22426e-026   
     length 0.542293   
     axis 7.80276e-015 90 90   XYZ
    dof rx
    limits (0.0 90.0)
  end
  begin
     id 23
     name lthumb
     direction 0.707107 -6.3486e-011 0.707107   
     length 0.778628   
     axis -90 45 5.37419e-014   XYZ
    dof rx rz
    limits (-45.0 45.0)
           (-45.0 45.0)
  end
  begin
     id 24 
     name rclavicle
     direction -0.960732 0.273675 -0.0457849   
     length 3.52079  
     axis 0 0 0   XYZ 
    dof ry rz
    limits (-10.0 20.0)
           (-20.0 0.0)
  end
  begin
     id 25 
     name rhumerus
     direction -1 -4.48976e-011 -1.63613e-027  
     length 5.45222   
     axis 180 30 90   XYZ
    dof rx ry rz
    limits (-90.0 60.0)
           (-90.0 90.0)
           (-90.0 90.0)
  end
  begin
     id 26 
     name rradius
     direction -1 -4.48957e-011 -7.00033e-028   
     length 3.01284   
     axis 180 30 90   XYZ
    dof rx
    limits (-10.0 170.0)
  end
  begin
     id 27 
     name rwrist
     direction -1 -4.48983e-011 -3.05543e-027   
     length 1.50642   
     axis 8.48514e-016 -90 -90   XYZ
    dof ry
    limits (-180.0 0.0)
  end
  begin
     id 28
     name rhand
     direction -1 -4.48984e-011 -6.11072e-027   
     length 0.622296   
     axis 3.9013e-015 -90 -90   XYZ
    dof rx rz
    limits (-90.0 90.0)
           (-45.0 45.0)
  end
  begin
     id 29
     name rfingers
     direction -1 -4.48865e-011 -1.22637e-026   
     length 0.501711   
     axis 7.80276e-015 -90 -90   XYZ
    dof rx
    limits (0.0 90.0)
  end
  begin
     id 30
     name rthumb
     direction -0.707107 -6.34932e-011 0.707107   
     length 0.72036   
     axis -90 -45 -5.37419e-014   XYZ
    dof rx rz
    limits (-45.0 45.0)
           (-45.0 45.0)
  end
:hierarchy
  begin
    root lhipjoint rhipjoint lowerback
    lhipjoint lfemur
    lfemur ltibia
    ltibia lfoot
    lfoot ltoes
    rhipjoint rfemur
    rfemur rtibia
    rtibia rfoot
    rfoot rtoes
    lowerback upperback
    upperback thorax
    thorax lowerneck lclavicle rclavicle
    lowerneck upperneck
    upperneck head
    lclavicle lhumerus
    lhumerus lradius
    lradius lwrist
    lwrist lhand lthumb
    lhand lfingers
    rclavicle rhumerus
    rhumerus rradius
    rradius rwrist
    rwrist rhand rthumb
    rhand rfingers
  end

#!OML:ASF H:\Not Pregnant\Project 1\Capture day 1\Session 1\non-pregnant.ASF
:FULLY-SPECIFIED
:DEGREES
1
root 4.23234 16.3992 14.8699 15.219 -4.53831 -4.45625
lowerback -10.7072 2.66369 5.536
upperback -8.89899 3.1093 -0.369025
thorax -3.03571 1.2827 -3.23326
lowerneck 16.0645 -9.58456 -29.9257
upperneck -9.47058 -17.4438 44.3874
head 2.56654 -11.0139 23.4194
rclavicle -2.3556e-014 -1.74931e-014
rhumerus -34.3034 11.0846 -98.3926
rradius 56.7521
rwrist -14.3344
rhand -9.20861 -13.7194
rfingers 7.12502
rthumb 16.7456 -43.0173
lclavicle -2.3556e-014 -1.74931e-014
lhumerus -42.8652 -13.7968 96.5328
lradius 66.6247
lwrist 57.0269
lhand -22.7548 -12.3002
lfingers 7.12502
lthumb 3.67988 17.6478
rfemur -19.7467 -14.4253 26.0661
rtibia 23.2751
rfoot -19.2907 21.8336
rtoes -12.9666
lfemur -19.4183 6.64962 -15.1126
ltibia 25.5748
lfoot -16.9439 2.81828
ltoes -26.7503
2
root 4.23291 16.3984 14.8756 15.2121 -4.56388 -4.46356
lowerback -10.7715 2.68226 5.53547
upperback -8.88534 3.12899 -0.378158
thorax -2.98383 1.29409 -3.23764
lowerneck 16.0664 -9.59363 -29.9091
upperneck -9.52447 -17.4432 44.4244
head 2.55743 -11.0185 23.4437
rclavicle -4.05024e-014 -1.35174e-014
rhumerus -34.2852 11.1383 -98.4244
rradius 56.9775
rwrist -14.4075
rhand -9.15078 -13.9296
rfingers 7.12502
rthumb 16.8013 -43.2227
lclavicle -4.05024e-014 -1.35174e-014
lhumerus -42.9105 -13.8483 96.5581
lradius 66.8923
lwrist 57.1209
lhand -22.7961 -12.2914
lfingers 7.12502
lthumb 3.63998 17.6572
rfemur -19.7233 -14.4877 26.0651
rtibia 23.2817
rfoot -19.3136 21.9294
rtoes -12.9256
lfemur -19.3853 6.68959 -15.1124
ltibia 25.5712
lfoot -16.9779 2.79425
ltoes -26.6467
3
root 4.23345 16.3974 14.8802 15.2023 -4.56789 -4.46717
lowerback -10.8311 2.68011 5.52923
upperback -8.87231 3.12215 -0.374541
thorax -2.93867 1.29255 -3.22814
lowerneck 16.041 -9.60615 -29.8926
upperneck -9.53569 -17.449 44.4249
head 2.56044 -11.0193 23.4317
rclavicle -3.33958e-014 -9.93923e-015
rhumerus -34.3073 11.211 -98.4554
rradius 57.2432
rwrist -14.5493
rhand -9.15069 -14.0188
rfingers 7.12502
rthumb 16.8014 -43.3119
lclavicle -3.33958e-014 -9.93923e-015
lhumerus -42.9905 -13.8265 96.5782
lradius 67.1802
lwrist 57.2019
lhand -22.8337 -12.1961
lfingers 7.12502
lthumb 3.6037 17.7532
rfemur -19.693 -14.5317 26.0587
rtibia 23.2782
rfoot -19.3297 21.9831
rtoes -12.8845
lfemur -19.3563 6.65732 -15.1056
ltibia 25.5789
lfoot -16.5024 2.59817
ltoes -25.4523
4
root 4.23411 16.3961 14.8843 15.2012 -4.57008 -4.48123
lowerback -10.872 2.68972 5.53902
upperback -8.88089 3.13151 -0.381546
thorax -2.92408 1.29682 -3.23856
lowerneck 16.0737 -9.59989 -29.8813
upperneck -9.59614 -17.432 44.4598
head 2.53581 -11.0181 23.4672
rclavicle 4.08502e-014 1.43125e-014
rhumerus -34.3611 11.2478 -98.4888
rradius 57.4952
rwrist -14.7386
rhand -9.1556 -14.0449
rfingers 7.12502
rthumb 16.7967 -43.3384
lclavicle 4.08502e-014 1.43125e-014
lhumerus -43.0979 -13.8286 96.6075
lradius 67.4313
lwrist 57.2506
lhand -22.8186 -12.1601
lfingers 7.12502
lthumb 3.61825 17.789
rfemur -19.6833 -14.6538 26.08
rtibia 23.2764
rfoot -19.3466 22.1292
rtoes -12.7223
lfemur -19.3378 6.69825 -15.0962
ltibia 25.5837
lfoot -16.875 2.78064
ltoes -26.6637
5
root 4.23462 16.3951 14.8884 15.1958 -4.5743 -4.48282
lowerback -10.9162 2.69533 5.53291
upperback -8.88107 3.1363 -0.388094
thorax -2.89975 1.30001 -3.23968
lowerneck 16.0828 -9.60379 -29.8696
upperneck -9.6395 -17.4282 44.4836
head 2.52438 -11.0201 23.4849
rclavicle -7.20594e-015 -8.34896e-015
rhumerus -34.3975 11.2894 -98.5192
rradius 57.7468
rwrist -14.9148
rhand -9.14741 -14.1479
rfingers 7.12502
rthumb 16.8045 -43.4407
lclavicle -7.20594e-015 -8.34896e-015
lhumerus -43.1929 -13.8269 96.6341
lradius 67.6919
lwrist 57.307
lhand -22.8256 -12.1078
lfingers 7.12502
lthumb 3.61149 17.8414
rfemur -19.6632 -14.7309 26.0802
rtibia 23.271
rfoot -19.3619 22.2203
rtoes -12.645
lfemur -19.314 6.68062 -15.0936
ltibia 25.589
lfoot -16.8944 2.82435
ltoes -26.8172
6
root 4.23508 16.3941 14.8921 15.1897 -4.57614 -4.48277
lowerback -10.9564 2.70029 5.5262
upperback -8.88186 3.14056 -0.396182
thorax -2.87821 1.30282 -3.24229
lowerneck 16.0922 -9.60874 -29.8578
upperneck -9.68249 -17.4261 44.5064
head 2.51353 -11.023 23.5011
rclavicle 1.70458e-014 3.45885e-014
rhumerus -34.4399 11.3232 -98.5493
rradius 57.9999
rwrist -15.1137
rhand -9.14142 -14.2607
rfingers 7.12502
rthumb 16.8103 -43.553
lclavicle 1.70458e-014 3.45885e-014
lhumerus -43.293 -13.8207 96.66
lradius 67.9479
lwrist 57.358
lhand -22.8296 -12.052
lfingers 7.12502
lthumb 3.60761 17.8972
rfemur -19.6426 -14.8096 26.0797
rtibia 23.2638
rfoot -19.3777 22.3086
rtoes -12.5759
lfemur -19.2893 6.64018 -15.0904
ltibia 25.5953
lfoot -16.9148 2.8908
ltoes -26.9783
7
root 4.23549 16.3933 14.8954 15.1831 -4.57692 -4.48264
lowerback -10.9936 2.70538 5.51945
upperback -8.88283 3.14522 -0.404883
thorax -2.85848 1.30577 -3.24563
lowerneck 16.1058 -9.61446 -29.8465
upperneck -9.72953 -17.4253 44.5283
head 2.50119 -11.0268 23.5168
rclavicle -1.24737e-014 1.78906e-014
rhumerus -34.4829 11.3507 -98.5781
rradius 58.2463
rwrist -15.3304
rhand -9.12857 -14.3848
rfingers 7.12502
rthumb 16.8227 -43.6761
lclavicle -1.24737e-014 1.78906e-014
lhumerus -43.3944 -13.8137 96.6863
lradius 68.1976
lwrist 57.4074
lhand -22.8377 -11.9921
lfingers 7.12502
lthumb 3.59985 17.9572
rfemur -19.6214 -14.887 26.0797
rtibia 23.2545
rfoot -19.3936 22.3938
rtoes -12.5148
lfemur -19.2629 6.58798 -15.0864
ltibia 25.5997
lfoot -16.9472 2.97309
ltoes -27.1431
